#!OML:ASF F:\VICON\USERDATA\INSTALL\rory3\rory3.ASF
:FULLY-SPECIFIED
:DEGREES
2219
root 1.77731 17.4268 3.00578 -1.98907 -12.3405 1.47723
lowerback 10.5185 1.03443 3.10159
upperback 0.908516 2.06546 6.62894
thorax -5.10311 1.0146 4.92834
lowerneck -27.1373 -2.90504 -7.7936
upperneck 20.8683 -2.08116 4.36998
head 11.3938 -0.997168 2.53769
rclavicle -2.5842e-014 -3.18055e-015
rhumerus -1.13611 -52.5636 -11.824
rradius 29.3625
rwrist -3.32289
rhand -41.8825 -7.41963
rfingers 7.12502
rthumb -14.782 -36.8725
lclavicle -2.5842e-014 -3.18055e-015
lhumerus 0.0750021 46.5499 12.7061
lradius 27.0022
lwrist -4.22696
lhand -26.3704 37.8079
lfingers 7.12502
lthumb 0.187953 -292.212
rfemur -3.66022 2.22641 15.512
rtibia 40.7182
rfoot -16.94 13.473
rtoes 7.57775
lfemur -20.8287 -4.67697 -18.7196
ltibia 22.8142
lfoot -2.13562 -7.62925
ltoes -17.2661
2220
root 1.83063 17.4371 3.06329 -2.21912 -12.5069 1.21526
lowerback 10.8151 0.98969 3.66789
upperback 1.0325 2.08739 6.71193
thorax -5.12321 1.0117 4.68977
lowerneck -27.1054 -2.88643 -7.84742
upperneck 20.8587 -2.03493 4.36631
head 11.3818 -0.981541 2.55299
rclavicle 1.45113e-014 -4.45278e-014
rhumerus -1.40197 -52.377 -11.8858
rradius 29.5915
rwrist -3.70929
rhand -41.8499 -7.22097
rfingers 7.12502
rthumb -14.7505 -36.6761
lclavicle 1.45113e-014 -4.45278e-014
lhumerus 0.162568 46.4049 12.8925
lradius 27.1578
lwrist -4.4237
lhand -26.5116 37.8687
lfingers 7.12502
lthumb 0.051599 -292.152
rfemur -3.54253 2.16163 15.4801
rtibia 41.1552
rfoot -16.3066 13.5487
rtoes 7.10656
lfemur -20.4024 -4.44792 -18.7269
ltibia 22.9327
lfoot -1.95277 -7.6312
ltoes -15.7992
2221
root 1.87624 17.4585 3.12116 -2.43172 -12.5824 1.24739
lowerback 11.0056 0.960813 3.88112
upperback 1.14039 2.0791 6.69498
thorax -5.10708 1.00178 4.54992
lowerneck -27.1403 -2.89028 -7.83095
upperneck 20.8993 -2.04093 4.35232
head 11.4036 -0.985004 2.54465
rclavicle 2.38542e-015 1.59028e-014
rhumerus -1.74703 -52.4078 -11.9379
rradius 29.7769
rwrist -3.74314
rhand -41.8159 -7.2556
rfingers 7.12502
rthumb -14.7178 -36.7131
lclavicle 2.38542e-015 1.59028e-014
lhumerus 0.224972 45.74 12.9645
lradius 27.3847
lwrist -4.06184
lhand -26.7243 37.7955
lfingers 7.12502
lthumb -0.153854 -292.225
rfemur -3.56037 2.06101 15.1664
rtibia 41.6236
rfoot -15.8066 13.2078
rtoes 5.04757
lfemur -19.9965 -4.14098 -19.0668
ltibia 22.9434
lfoot -1.62239 -7.87304
ltoes -14.4677
2222
root 1.91248 17.4735 3.17141 -2.49152 -12.619 1.32254
lowerback 11.0531 0.935069 3.86289
upperback 1.19139 2.04374 6.72985
thorax -5.07985 0.984913 4.60258
lowerneck -26.9771 -2.86514 -7.81329
upperneck 20.8438 -2.0028 4.26577
head 11.3494 -0.978846 2.51487
rclavicle 3.97569e-016 -6.36111e-015
rhumerus -1.99931 -52.3737 -12.0037
rradius 29.9821
rwrist -3.74838
rhand -41.703 -7.20586
rfingers 7.12502
rthumb -14.609 -36.6713
lclavicle 3.97569e-016 -6.36111e-015
lhumerus 0.183659 45.147 12.9925
lradius 27.6547
lwrist -3.82352
lhand -26.5687 37.39
lfingers 7.12502
lthumb -0.00353755 -292.63
rfemur -3.7289 2.01363 14.8544
rtibia 42.1037
rfoot -15.3513 13.1043
rtoes 3.44121
lfemur -19.7632 -3.7994 -19.4212
ltibia 22.8592
lfoot -1.31126 -8.28834
ltoes -13.4082
2223
root 1.94836 17.4803 3.22115 -2.48806 -12.6418 1.42025
lowerback 10.9987 0.906178 3.82749
upperback 1.21542 1.99651 6.77244
thorax -5.02434 0.962927 4.67583
lowerneck -26.7199 -2.79654 -7.68329
upperneck 20.7671 -1.92409 4.05715
head 11.265 -0.961919 2.42776
rclavicle -6.75868e-015 -1.27222e-014
rhumerus -2.16967 -52.258 -12.0827
rradius 30.172
rwrist -3.83607
rhand -41.7269 -7.1843
rfingers 7.12502
rthumb -14.632 -36.6481
lclavicle -6.75868e-015 -1.27222e-014
lhumerus 0.289807 45.0658 13.2223
lradius 27.8736
lwrist -4.2743
lhand -26.1929 37.0335
lfingers 7.12502
lthumb 0.359416 -292.987
rfemur -3.94209 2.02099 14.5106
rtibia 42.6063
rfoot -14.8332 13.36
rtoes 3.18512
lfemur -19.601 -3.48046 -19.795
ltibia 22.7379
lfoot -1.00866 -8.63322
ltoes -13.5986
2224
root 1.98347 17.4857 3.27451 -2.53044 -12.681 1.52451
lowerback 10.9401 0.908892 3.82353
upperback 1.28651 1.98995 6.80316
thorax -4.91738 0.960175 4.7117
lowerneck -26.7239 -2.78403 -7.68434
upperneck 20.8107 -1.88765 3.98702
head 11.2792 -0.95562 2.40858
rclavicle 1.21259e-014 3.49861e-014
rhumerus -2.3473 -52.2698 -12.1318
rradius 30.3228
rwrist -3.72607
rhand -41.8371 -7.25271
rfingers 7.12502
rthumb -14.7383 -36.7088
lclavicle 1.21259e-014 3.49861e-014
lhumerus 0.464189 44.7892 13.5671
lradius 28.2123
lwrist -4.3966
lhand -26.2467 37.0754
lfingers 7.12502
lthumb 0.307497 -292.945
rfemur -4.04118 2.01501 14.1551
rtibia 43.0713
rfoot -14.341 13.6289
rtoes 3.23053
lfemur -19.3901 -3.14852 -20.1993
ltibia 22.7224
lfoot -0.903738 -8.86971
ltoes -15.1466
